<svg xmlns="http://www.w3.org/2000/svg" viewBox="0 0 1200 630" width="1200" height="630">
  <defs>
    <radialGradient id="glow1" cx="50%" cy="40%" r="60%">
      <stop offset="0%" stop-color="#0891B2" stop-opacity="0.12"/>
      <stop offset="100%" stop-color="#0891B2" stop-opacity="0"/>
    </radialGradient>
    <linearGradient id="iconBg" x1="0" y1="0" x2="1" y2="1">
      <stop offset="0%" stop-color="#0891B2"/>
      <stop offset="100%" stop-color="#22D3EE"/>
    </linearGradient>
  </defs>

  <rect width="1200" height="630" fill="#F8FAFC"/>
  <ellipse cx="600" cy="280" rx="500" ry="400" fill="url(#glow1)"/>

  <!-- Brand lockup centered -->
  <g transform="translate(600, 80)" text-anchor="middle">
    <rect x="-32" y="0" width="64" height="64" rx="16" fill="url(#iconBg)"/>
    <path d="M-14 18h16a6 6 0 0 1 6 6v22a5 5 0 0 0-5-5h-17z" fill="#fff" opacity="0.95"/>
    <path d="M14 18h-12a6 6 0 0 0-6 6v22a5 5 0 0 1 5-5h13z" fill="#fff" opacity="0.95"/>
    <text x="0" y="105"
          font-family="Archivo, 'Helvetica Neue', Arial, sans-serif"
          font-weight="800" font-size="28"
          fill="#0F172A"
          text-anchor="middle">LearnOS</text>
  </g>

  <!-- Headline centered -->
  <text x="600" y="275"
        font-family="Archivo, 'Helvetica Neue', Arial, sans-serif"
        font-weight="900" font-size="58"
        fill="#0F172A" text-anchor="middle"
        letter-spacing="-2">STOP PAYING</text>
  <text x="600" y="355"
        font-family="'Instrument Serif', Georgia, serif"
        font-style="italic" font-size="65"
        fill="#0891B2" text-anchor="middle"
        letter-spacing="-2">to update</text>
  <text x="600" y="435"
        font-family="Archivo, 'Helvetica Neue', Arial, sans-serif"
        font-weight="900" font-size="58"
        fill="#0F172A" text-anchor="middle"
        letter-spacing="-2">YOUR OWN LMS.</text>

  <!-- Tagline centered -->
  <text x="600" y="560"
        font-family="'JetBrains Mono', monospace"
        font-size="16" font-weight="500"
        fill="#64748B" text-anchor="middle"
        letter-spacing="4">ONE BUILD .  ONE PRICE .  OWNED FOREVER</text>

  <text x="600" y="600"
        font-family="'JetBrains Mono', monospace"
        font-size="13"
        fill="#94A3B8" text-anchor="middle"
        letter-spacing="2">POWERED BY PERFORMOS</text>
</svg>
